# xmcd
#
# Track frame offsets:
#	150
#	19453
#	34408
#	55784
#	68455
#	82379
#	103320
#	114202
#	132991
#	148572
#	174115
#
# Disc length: 2630 seconds
#
# Revision: 1
# Processed by: cddbd v1.4PL0 Copyright (c) Steve Scherf et al.
# Submitted via: audiograbber 1.80
#
DISCID=970a440b
DTITLE=Steamroller - Razzle Dazzle
DYEAR=1900
DGENRE=
TTITLE0=He Gets It
TTITLE1=Nothin' Personal
TTITLE2=Cut It To Shreds
TTITLE3=Can't Get Hired
TTITLE4=Razzle Dazzle
TTITLE5=The Kind
TTITLE6=Backseat
TTITLE7=Underfoot
TTITLE8=Give It A Rest
TTITLE9=No Gettin' Loony
TTITLE10=Ugly
EXTD=
EXTT0=
EXTT1=
EXTT2=
EXTT3=
EXTT4=
EXTT5=
EXTT6=
EXTT7=
EXTT8=
EXTT9=
EXTT10=
PLAYORDER=
